HIERARCHY
ROOT Hips
{
    OFFSET   0.000000   0.000000   0.000000
    CHANNELS 6 Xposition Yposition Zposition Zrotation Xrotation Yrotation
    JOINT Chest
    {
        OFFSET   0.000000   8.007230   0.000000
        CHANNELS 3 Zrotation Xrotation Yrotation
        JOINT Chest2
        {
            OFFSET   0.000000  22.077100   0.000000
            CHANNELS 3 Zrotation Xrotation Yrotation
            JOINT Neck
            {
                OFFSET   0.000000  23.254800  -0.000021
                CHANNELS 3 Zrotation Xrotation Yrotation
                JOINT Head
                {
                    OFFSET   0.000000  14.370000   1.956610
                    CHANNELS 3 Zrotation Xrotation Yrotation
                    End Site
                    {
                        OFFSET   0.000000  19.566000   0.000000
                    }
                }
            }
            JOINT LeftCollar
            {
                OFFSET   3.911900  19.017000  -0.467063
                CHANNELS 3 Zrotation Xrotation Yrotation
                JOINT LeftShoulder
                {
                    OFFSET  10.383700   0.000000   0.000000
                    CHANNELS 3 Zrotation Xrotation Yrotation
                    JOINT LeftElbow
                    {
                        OFFSET  26.662100   0.001529   0.000325
                        CHANNELS 3 Zrotation Xrotation Yrotation
                        JOINT LeftWrist
                        {
                            OFFSET  28.869000  -0.000011  -0.000096
                            CHANNELS 3 Zrotation Xrotation Yrotation
                            JOINT LeftFinger0
                            {
                                OFFSET   2.044650  -2.323460   3.252850
                                CHANNELS 3 Zrotation Xrotation Yrotation
                                JOINT LeftFinger01
                                {
                                    OFFSET   3.088130   0.000000   0.000000
                                    CHANNELS 3 Zrotation Xrotation Yrotation
                                    JOINT LeftFinger02
                                    {
                                        OFFSET   2.639460   0.000000   0.000000
                                        CHANNELS 3 Zrotation Xrotation Yrotation
                                        End Site
                                        {
                                            OFFSET   2.582190   0.000000   0.000000
                                        }
                                    }
                                }
                            }
                            JOINT LeftFinger1
                            {
                                OFFSET   8.364480   0.000000   3.252850
                                CHANNELS 3 Zrotation Xrotation Yrotation
                                JOINT LeftFinger11
                                {
                                    OFFSET   4.646930   0.000000   0.000000
                                    CHANNELS 3 Zrotation Xrotation Yrotation
                                    JOINT LeftFinger12
                                    {
                                        OFFSET   2.323460   0.000000   0.000000
                                        CHANNELS 3 Zrotation Xrotation Yrotation
                                        End Site
                                        {
                                            OFFSET   2.273050   0.000000   0.000000
                                        }
                                    }
                                }
                            }
                            JOINT LeftFinger2
                            {
                                OFFSET   8.364480   0.000016   1.078090
                                CHANNELS 3 Zrotation Xrotation Yrotation
                                JOINT LeftFinger21
                                {
                                    OFFSET   5.111620   0.000000   0.000000
                                    CHANNELS 3 Zrotation Xrotation Yrotation
                                    JOINT LeftFinger22
                                    {
                                        OFFSET   2.788160   0.000017   0.000000
                                        CHANNELS 3 Zrotation Xrotation Yrotation
                                        End Site
                                        {
                                            OFFSET   2.727660   0.000000   0.000000
                                        }
                                    }
                                }
                            }
                            JOINT LeftFinger3
                            {
                                OFFSET   7.899780   0.000015  -1.078090
                                CHANNELS 3 Zrotation Xrotation Yrotation
                                JOINT LeftFinger31
                                {
                                    OFFSET   4.646920   0.000000   0.000000
                                    CHANNELS 3 Zrotation Xrotation Yrotation
                                    JOINT LeftFinger32
                                    {
                                        OFFSET   2.323470   0.000000   0.000000
                                        CHANNELS 3 Zrotation Xrotation Yrotation
                                        End Site
                                        {
                                            OFFSET   2.273050   0.000000   0.000000
                                        }
                                    }
                                }
                            }
                            JOINT LeftFinger4
                            {
                                OFFSET   7.435090   0.000000  -3.252850
                                CHANNELS 3 Zrotation Xrotation Yrotation
                                JOINT LeftFinger41
                                {
                                    OFFSET   3.717550   0.000000   0.000000
                                    CHANNELS 3 Zrotation Xrotation Yrotation
                                    JOINT LeftFinger42
                                    {
                                        OFFSET   1.858760   0.000000   0.000000
                                        CHANNELS 3 Zrotation Xrotation Yrotation
                                        End Site
                                        {
                                            OFFSET   1.818440   0.000000   0.000000
                                        }
                                    }
                                }
                            }
                        }
                    }
                }
            }
            JOINT RightCollar
            {
                OFFSET  -3.911900  19.017000  -0.467062
                CHANNELS 3 Zrotation Xrotation Yrotation
                JOINT RightShoulder
                {
                    OFFSET -10.383700   0.000015   0.000000
                    CHANNELS 3 Zrotation Xrotation Yrotation
                    JOINT RightElbow
                    {
                        OFFSET -26.662100   0.001341   0.000385
                        CHANNELS 3 Zrotation Xrotation Yrotation
                        JOINT RightWrist
                        {
                            OFFSET -28.869000   0.000025  -0.000080
                            CHANNELS 3 Zrotation Xrotation Yrotation
                            JOINT RightFinger0
                            {
                                OFFSET  -2.044650  -2.323490   3.252850
                                CHANNELS 3 Zrotation Xrotation Yrotation
                                JOINT RightFinger01
                                {
                                    OFFSET  -3.088130   0.000000   0.000000
                                    CHANNELS 3 Zrotation Xrotation Yrotation
                                    JOINT RightFinger02
                                    {
                                        OFFSET  -2.639460   0.000000   0.000000
                                        CHANNELS 3 Zrotation Xrotation Yrotation
                                        End Site
                                        {
                                            OFFSET  -2.582190   0.000000   0.000000
                                        }
                                    }
                                }
                            }
                            JOINT RightFinger1
                            {
                                OFFSET  -8.364480   0.000000   3.252850
                                CHANNELS 3 Zrotation Xrotation Yrotation
                                JOINT RightFinger11
                                {
                                    OFFSET  -4.646930   0.000000   0.000000
                                    CHANNELS 3 Zrotation Xrotation Yrotation
                                    JOINT RightFinger12
                                    {
                                        OFFSET  -2.323470   0.000000   0.000000
                                        CHANNELS 3 Zrotation Xrotation Yrotation
                                        End Site
                                        {
                                            OFFSET  -2.273050   0.000000   0.000000
                                        }
                                    }
                                }
                            }
                            JOINT RightFinger2
                            {
                                OFFSET  -8.364480   0.000000   1.078090
                                CHANNELS 3 Zrotation Xrotation Yrotation
                                JOINT RightFinger21
                                {
                                    OFFSET  -5.111610   0.000000   0.000000
                                    CHANNELS 3 Zrotation Xrotation Yrotation
                                    JOINT RightFinger22
                                    {
                                        OFFSET  -2.788160   0.000000   0.000000
                                        CHANNELS 3 Zrotation Xrotation Yrotation
                                        End Site
                                        {
                                            OFFSET  -2.727660   0.000000   0.000000
                                        }
                                    }
                                }
                            }
                            JOINT RightFinger3
                            {
                                OFFSET  -7.899780   0.000000  -1.078090
                                CHANNELS 3 Zrotation Xrotation Yrotation
                                JOINT RightFinger31
                                {
                                    OFFSET  -4.646920   0.000000   0.000000
                                    CHANNELS 3 Zrotation Xrotation Yrotation
                                    JOINT RightFinger32
                                    {
                                        OFFSET  -2.323470   0.000000   0.000000
                                        CHANNELS 3 Zrotation Xrotation Yrotation
                                        End Site
                                        {
                                            OFFSET  -2.273050   0.000000   0.000000
                                        }
                                    }
                                }
                            }
                            JOINT RightFinger4
                            {
                                OFFSET  -7.435090   0.000000  -3.252850
                                CHANNELS 3 Zrotation Xrotation Yrotation
                                JOINT RightFinger41
                                {
                                    OFFSET  -3.717550   0.000000   0.000000
                                    CHANNELS 3 Zrotation Xrotation Yrotation
                                    JOINT RightFinger42
                                    {
                                        OFFSET  -1.858770   0.000000   0.000000
                                        CHANNELS 3 Zrotation Xrotation Yrotation
                                        End Site
                                        {
                                            OFFSET  -1.818440   0.000000   0.000000
                                        }
                                    }
                                }
                            }
                        }
                    }
                }
            }
        }
    }
    JOINT LeftHip
    {
        OFFSET   9.783010   0.000000   0.000000
        CHANNELS 3 Zrotation Xrotation Yrotation
        JOINT LeftKnee
        {
            OFFSET   0.000070 -41.789100   0.000028
            CHANNELS 3 Zrotation Xrotation Yrotation
            JOINT LeftAnkle
            {
                OFFSET   0.000087 -41.133200  -0.000100
                CHANNELS 3 Zrotation Xrotation Yrotation
                JOINT LeftToe
                {
                    OFFSET   0.000000  -6.358960  14.674500
                    CHANNELS 3 Zrotation Xrotation Yrotation
                    End Site
                    {
                        OFFSET   0.000000   0.000000   3.913200
                    }
                }
            }
        }
    }
    JOINT RightHip
    {
        OFFSET  -9.783020   0.000000   0.000000
        CHANNELS 3 Zrotation Xrotation Yrotation
        JOINT RightKnee
        {
            OFFSET   0.000044 -41.789100  -0.000870
            CHANNELS 3 Zrotation Xrotation Yrotation
            JOINT RightAnkle
            {
                OFFSET  -0.000090 -41.133200  -0.000245
                CHANNELS 3 Zrotation Xrotation Yrotation
                JOINT RightToe
                {
                    OFFSET   0.000000  -6.358960  14.674500
                    CHANNELS 3 Zrotation Xrotation Yrotation
                    End Site
                    {
                        OFFSET   0.000000   0.000000   3.913200
                    }
                }
            }
        }
    }
}
MOTION
Frames: 6
Frame Time:   0.016667
 -0.320509  89.468200   0.093450  -1.389480   0.341743   1.018400   0.894075   0.690837  -0.907873   1.799190   1.367340  -1.826620  -0.635308   0.917032   0.009674  -1.044330   1.858860   1.514770  -2.112120   3.383080   8.761840 -79.376200   3.633870   3.923870   0.390233   4.627070 -14.760800   6.024000 -12.725200  -2.751420  39.620100  26.519200 -50.560800 -27.027100  -0.002294   0.006289  -8.513560   0.013954   0.002848 -27.868800  -0.382147   0.722260 -22.807100  -0.007880   0.000643 -15.964900  -0.005631   0.001572 -29.373800  -0.660508   6.701480 -43.845200   0.001890   0.005418 -29.200900  -0.001380  -0.010786 -27.591500  -3.667500   6.999570 -30.841200   0.002811   0.001717 -20.540200   0.002002   0.000155 -31.648700  -4.166110   6.721410 -47.841500   0.002692  -0.002356 -31.859100   0.001525   0.000947   7.097260   5.488200   3.656230  71.807000  -4.785060  -1.480740   3.735150  -5.435750  10.979000 -17.280800  -5.891370   1.998590 -42.275800  37.115200  74.969700  27.364000   0.002796  -0.001492   8.681980   0.001013   0.001254  25.697900   2.622360   5.431110  21.127300  -0.004580   0.002419  14.789100  -0.000919   0.004784  28.264100   2.430020   4.510210  34.686100   0.000000  -0.001563  23.101000   0.004009  -0.001140  27.610000   1.867850   3.567300  30.015700  -0.000156  -0.000828  19.990500  -0.004522   0.000410  27.973200   0.881994   1.660110  41.979000  -0.000081   0.000093  27.958000   0.003188  -0.000126   3.683310   1.687410  -1.227720   0.110941   0.733863  12.499400  -2.711650  -2.993670   0.684884   0.000000   0.000000   0.000000  -0.966630   2.301570  -6.100500   0.973356   0.938704  -9.196120  -0.455133  -3.034180   0.196409  -0.000000   0.000000  -0.000000
 -0.325584  89.468200   0.097660  -1.392770   0.341745   1.002360   0.894151   0.692692  -0.902812   1.799290   1.371120  -1.816530  -0.635313   0.917076   0.009696  -1.044310   1.858860   1.518890  -2.104450   3.382040   8.749700 -79.383500   3.595190   3.923710   0.403232   4.650080 -14.746000   6.019760 -12.724100  -2.770610  39.623500  26.512200 -50.588500 -27.017800  -0.002301   0.006292  -8.508900   0.014100   0.002846 -27.869000  -0.372243   0.703704 -22.807000  -0.007887   0.000690 -15.964900  -0.005686   0.001573 -29.377100  -0.633009   6.701380 -43.845200   0.002029   0.005466 -29.200900  -0.001254  -0.010880 -27.592000  -3.667570   6.991350 -30.843900   0.003007   0.001607 -20.542100   0.002147   0.000194 -31.649300  -4.161160   6.713600 -47.840900   0.002903  -0.002356 -31.859100   0.001641   0.001028   7.096820   5.488250   3.647750  71.805600  -4.791600  -1.495330   3.740020  -5.440650  10.965200 -17.278500  -5.895050   2.019220 -42.272700  37.105700  74.965400  27.355800   0.002790  -0.001498   8.677890   0.001018   0.001254  25.710200   2.642410   5.469380  21.138800  -0.004583   0.002414  14.797200  -0.000917   0.004788  28.262500   2.439710   4.527850  34.705300   0.000000  -0.001565  23.113800   0.004011  -0.001151  27.609900   1.869070   3.569040  30.036500  -0.000148  -0.000830  20.004300  -0.004523   0.000394  27.991500   0.893871   1.681160  42.006900  -0.000076   0.000091  27.976600   0.003175  -0.000135   3.684910   1.691580  -1.228960   0.111474   0.733516  12.508600  -2.711560  -2.998500   0.684880  -0.000000   0.000000  -0.000000  -0.956725   2.302440  -6.109750   0.973732   0.937330  -9.182840  -0.456541  -3.034350   0.208360  -0.000000   0.000000  -0.000000
 -0.334151  89.468300   0.105017  -1.399390   0.341747   0.981389   0.894268   0.698828  -0.895536   1.799550   1.383510  -1.802080  -0.635350   0.917121   0.009744  -1.044550   1.858850   1.530750  -2.096450   3.378810   8.737540 -79.390700   3.556520   3.923550   0.420870   4.673160 -14.728000   6.012640 -12.720300  -2.803300  39.621500  26.507500 -50.617700 -27.008500  -0.002314   0.006297  -8.504240   0.014404   0.002844 -27.869400  -0.356970   0.675042 -22.806900  -0.007900   0.000790 -15.964800  -0.005796   0.001577 -29.382100  -0.590453   6.701190 -43.845200   0.002223   0.005569 -29.200900  -0.001043  -0.011081 -27.592700  -3.667660   6.979860 -30.846700   0.003281   0.001422 -20.543900   0.002349   0.000258 -31.647700  -4.153870   6.702810 -47.836600   0.003199  -0.002357 -31.859100   0.001803   0.001143   7.094130   5.488310   3.636170  71.803700  -4.801400  -1.514680   3.749670  -5.450480  10.950400 -17.274800  -5.906780   2.051220 -42.269600  37.096100  74.961100  27.347600   0.002777  -0.001511   8.673800   0.001022   0.001255  25.722400   2.662460   5.507660  21.150400  -0.004594   0.002400  14.805300  -0.000907   0.004797  28.261000   2.449410   4.545500  34.724600   0.000000  -0.001571  23.126600   0.004013  -0.001167  27.609700   1.870290   3.570780  30.057200  -0.000121  -0.000836  20.018100  -0.004532   0.000356  28.009700   0.905747   1.702210  42.034800  -0.000062   0.000082  27.995200   0.003148  -0.000143   3.690000   1.703710  -1.232010   0.112346   0.731219  12.524900  -2.711460  -3.005260   0.684829   0.000000   0.000000   0.000000  -0.940166   2.308740  -6.119070   0.973934   0.932719  -9.164270  -0.459909  -3.035590   0.221109   0.000000   0.000000   0.000000
 -0.341300  89.468300   0.111506  -1.407100   0.336889   0.975641   0.893618   0.710434  -0.892279   1.798420   1.406780  -1.795730  -0.637363   0.916585   0.009826  -1.047280   1.857820   1.550220  -2.097700   3.372420   8.737710 -79.387100   3.556810   3.922520   0.428823   4.669560 -14.724300   6.006530 -12.711900  -2.832360  39.607100  26.512600 -50.619400 -27.033300  -0.002328   0.006307  -8.516640   0.014805   0.002850 -27.869800  -0.347034   0.656295 -22.806800  -0.007917   0.000927 -15.964700  -0.005943   0.001580 -29.379600  -0.557727   6.700990 -43.835600   0.002307   0.005712 -29.194500  -0.000831  -0.011361 -27.593000  -3.666690   6.977220 -30.827600   0.003400   0.001235 -20.531200   0.002435   0.000320 -31.636000  -4.150860   6.700670 -47.819000   0.003327  -0.002363 -31.848600   0.001871   0.001193   7.087040   5.485750   3.632970  71.798000  -4.807930  -1.520220   3.762270  -5.461460  10.949600 -17.265200  -5.931410   2.074600 -42.271500  37.110800  74.960100  27.368300   0.002758  -0.001521   8.684140   0.001009   0.001236  25.721400   2.649650   5.481360  21.148600  -0.004611   0.002376  14.804000  -0.000888   0.004811  28.260000   2.428940   4.508090  34.699600   0.000043  -0.001586  23.110000   0.003975  -0.001171  27.606100   1.850530   3.534000  30.031400  -0.000064  -0.000849  20.000900  -0.004562   0.000304  27.997300   0.895051   1.683370  42.015700  -0.000026   0.000037  27.982500   0.003114  -0.000128   3.699520   1.724920  -1.238030   0.113951   0.720379  12.541000  -2.712160  -3.008070   0.681420   0.000000   0.000000   0.000000  -0.926940   2.329570  -6.119220   0.972871   0.921149  -9.156760  -0.464799  -3.041770   0.222040  -0.000000   0.000000   0.000000
 -0.348454  89.468400   0.118628  -1.415810   0.327070   0.974819   0.892229   0.725086  -0.890144   1.795820   1.436140  -1.791680  -0.640675   0.916050   0.009883  -1.051610   1.856780   1.576690  -2.104280   3.365840   8.737880 -79.377800   3.558830   3.919260   0.436462   4.665900 -14.723700   6.000950 -12.702400  -2.859480  39.598100  26.515400 -50.619600 -27.058100  -0.002338   0.006314  -8.529030   0.015206   0.002857 -27.870300  -0.339189   0.641417 -22.806600  -0.007927   0.001064 -15.964600  -0.006073   0.001583 -29.375300  -0.540058   6.700860 -43.826100   0.002335   0.005855 -29.188200  -0.000704  -0.011641 -27.593700  -3.663230   6.973330 -30.808500   0.003440   0.001122 -20.518500   0.002463   0.000357 -31.627300  -4.147330   6.697640 -47.805100   0.003370  -0.002370 -31.838200   0.001894   0.001211   7.079930   5.478680   3.631410  71.787300  -4.811180  -1.521020   3.771550  -5.475580  10.949300 -17.256300  -5.955780   2.089660 -42.276500  37.139200  74.967400  27.401300   0.002732  -0.001540   8.700670   0.000986   0.001203  25.714600   2.631710   5.446320  21.141700  -0.004633   0.002344  14.799100  -0.000862   0.004828  28.256800   2.408470   4.470690  34.657700   0.000114  -0.001605  23.082000   0.003912  -0.001175  27.598800   1.830780   3.497210  29.987400   0.000000  -0.000864  19.971600  -0.004591   0.000230  27.973300   0.884355   1.664540  41.979200   0.000000   0.000000  27.958200   0.003074  -0.000113   3.711220   1.751110  -1.242230   0.116259   0.705133  12.555700  -2.715160  -3.008970   0.671629   0.000000   0.000000   0.000000  -0.911965   2.351590  -6.119320   0.971969   0.912817  -9.153810  -0.469758  -3.050420   0.222174   0.000000   0.000000  -0.000000
 -0.355203  89.468500   0.126280  -1.425280   0.315268   0.981793   0.890679   0.741336  -0.888367   1.792970   1.468680  -1.788380  -0.643139   0.916865   0.009867  -1.055310   1.858370   1.608210  -2.119460   3.362110   8.731100 -79.363000   3.575070   3.913110   0.445877   4.665890 -14.733900   5.997650 -12.693100  -2.876530  39.597800  26.506600 -50.622200 -27.050800  -0.002333   0.006308  -8.525390   0.015507   0.002855 -27.870500  -0.334651   0.632691 -22.806500  -0.007926   0.001163 -15.964400  -0.006120   0.001590 -29.379000  -0.553380   6.700890 -43.834000   0.001759   0.005958 -29.193400  -0.000788  -0.011844 -27.595200  -3.657010   6.961370 -30.811100   0.002628   0.001196 -20.520200   0.001864   0.000332 -31.629900  -4.140300   6.686340 -47.806900   0.002490  -0.002377 -31.839400   0.001416   0.000871   7.076570   5.467490   3.627280  71.775500  -4.785680  -1.518780   3.775830  -5.499400  10.948400 -17.258200  -5.966260   2.092890 -42.286600  37.177300  74.995300  27.426200   0.002695  -0.001579   8.713160   0.000964   0.001166  25.692300   2.624020   5.436110  21.123000  -0.004655   0.002309  14.786100  -0.000834   0.004851  28.252000   2.413020   4.479870  34.614800   0.000167  -0.001625  23.053400   0.003866  -0.001189  27.589700   1.835660   3.507620  29.940900   0.000043  -0.000881  19.940600  -0.004596   0.000119  27.939700   0.888057   1.673460  41.928900   0.000000   0.000000  27.924700   0.003034  -0.000166   3.723230   1.778600  -1.241260   0.118611   0.692816  12.565000  -2.721340  -3.008820   0.654922   0.000000   0.000000   0.000000  -0.892165   2.356190  -6.119260   0.967398   0.927243  -9.153000  -0.473142  -3.057350   0.213315   0.000000   0.000000   0.000000
